<svg width="186" height="23" viewBox="0 0 186 23" fill="none" xmlns="http://www.w3.org/2000/svg">
<path d="M10.7614 18H16.7614L9.90909 9.30682L17.9205 0.545454H11.6818L5.68182 7.125H4.86364V0.545454H0.125V18H4.86364V10.9432H5.30682L10.7614 18ZM22.8956 18.2045C24.6001 18.2045 25.8871 17.625 26.6797 16.1591H26.782V18H31.1797V9.03409C31.1797 6.61364 28.8871 4.73864 25.1456 4.73864C21.2337 4.73864 19.3075 6.78409 19.1456 9.17045H23.4751C23.5859 8.3608 24.1825 7.97727 25.0774 7.97727C25.8956 7.97727 26.4751 8.35227 26.4751 9.03409V9.06818C26.4751 9.8267 25.6399 10.0653 23.4411 10.2273C20.7393 10.4233 18.6342 11.5142 18.6342 14.3864C18.6342 16.9943 20.3899 18.2045 22.8956 18.2045ZM24.4297 15.2386C23.6286 15.2386 23.0661 14.8466 23.0661 14.1136C23.0661 13.4403 23.5433 12.9205 24.6342 12.75C25.3842 12.6307 26.0149 12.4773 26.5092 12.2727V13.3636C26.5092 14.5568 25.495 15.2386 24.4297 15.2386ZM33.4276 22.9091H38.1321V15.8523H38.2003C38.7457 17.1818 40.0071 18.1705 41.848 18.1705C44.6435 18.1705 46.9957 15.9886 46.9957 11.4545C46.9957 6.71591 44.473 4.73864 41.8821 4.73864C39.9389 4.73864 38.7116 5.86364 38.2003 7.19318H38.098V4.90909H33.4276V22.9091ZM38.0298 11.4545C38.0298 9.51136 38.8139 8.35227 40.1094 8.35227C41.4048 8.35227 42.1548 9.51136 42.1548 11.4545C42.1548 13.3977 41.4048 14.5568 40.1094 14.5568C38.8139 14.5568 38.0298 13.3636 38.0298 11.4545ZM52.6143 18.2045C54.3189 18.2045 55.6058 17.625 56.3984 16.1591H56.5007V18H60.8984V9.03409C60.8984 6.61364 58.6058 4.73864 54.8643 4.73864C50.9524 4.73864 49.0263 6.78409 48.8643 9.17045H53.1939C53.3047 8.3608 53.9013 7.97727 54.7962 7.97727C55.6143 7.97727 56.1939 8.35227 56.1939 9.03409V9.06818C56.1939 9.8267 55.3587 10.0653 53.1598 10.2273C50.4581 10.4233 48.353 11.5142 48.353 14.3864C48.353 16.9943 50.1087 18.2045 52.6143 18.2045ZM54.1484 15.2386C53.3473 15.2386 52.7848 14.8466 52.7848 14.1136C52.7848 13.4403 53.2621 12.9205 54.353 12.75C55.103 12.6307 55.7337 12.4773 56.228 12.2727V13.3636C56.228 14.5568 55.2138 15.2386 54.1484 15.2386ZM75.3509 4.90909H70.9531V10.892C70.6037 10.9517 70.2798 10.9773 69.9645 10.9773C67.8509 10.9773 67.5099 10.7386 67.5099 9.54545V4.90909H63.1463V9.54545C63.1463 13.0909 65.669 14.4886 69.9645 14.4886C70.2202 14.4886 70.5781 14.4545 70.9531 14.4034V18H75.3509V4.90909ZM81.255 18.2045C82.9595 18.2045 84.2464 17.625 85.0391 16.1591H85.1413V18H89.5391V9.03409C89.5391 6.61364 87.2464 4.73864 83.505 4.73864C79.593 4.73864 77.6669 6.78409 77.505 9.17045H81.8345C81.9453 8.3608 82.5419 7.97727 83.4368 7.97727C84.255 7.97727 84.8345 8.35227 84.8345 9.03409V9.06818C84.8345 9.8267 83.9993 10.0653 81.8004 10.2273C79.0987 10.4233 76.9936 11.5142 76.9936 14.3864C76.9936 16.9943 78.7493 18.2045 81.255 18.2045ZM82.7891 15.2386C81.9879 15.2386 81.4254 14.8466 81.4254 14.1136C81.4254 13.4403 81.9027 12.9205 82.9936 12.75C83.7436 12.6307 84.3743 12.4773 84.8686 12.2727V13.3636C84.8686 14.5568 83.8544 15.2386 82.7891 15.2386ZM98.0597 18.2386C101.69 18.2386 104.026 16.5 104.469 13.7727H100.173C99.9006 14.5142 99.125 14.9318 98.1619 14.9318C96.7642 14.9318 95.946 14.0114 95.946 12.75V12.5455H104.469V11.4545C104.469 7.28693 101.912 4.73864 97.9574 4.73864C93.9006 4.73864 91.3097 7.43182 91.3097 11.4886C91.3097 15.7244 93.8665 18.2386 98.0597 18.2386ZM95.946 9.95455C95.9716 8.82102 96.9091 8.04545 98.0597 8.04545C99.2273 8.04545 100.114 8.82955 100.139 9.95455H95.946ZM106.388 18H113.002C116.684 18 118.661 16.7727 118.661 14.3864C118.661 12.8864 117.434 11.3523 114.468 11.2159C116.616 10.875 117.775 9.78409 117.775 8.48864C117.775 6.10227 115.627 4.90909 112.116 4.90909H106.388V18ZM110.752 14.6932V12.6136H113.002C113.761 12.6136 114.229 13.0142 114.229 13.6705C114.229 14.3097 113.761 14.6932 113.002 14.6932H110.752ZM110.752 10.2273V8.31818H112.116C112.917 8.31818 113.411 8.67614 113.411 9.27273C113.411 9.86932 112.977 10.2273 112.252 10.2273H110.752ZM126.781 18.2386C131.043 18.2386 133.565 15.5114 133.565 11.4886C133.565 7.46591 131.043 4.73864 126.781 4.73864C122.52 4.73864 119.997 7.46591 119.997 11.4886C119.997 15.5114 122.52 18.2386 126.781 18.2386ZM126.815 14.7614C125.554 14.7614 124.804 13.5085 124.804 11.4545C124.804 9.40057 125.554 8.14773 126.815 8.14773C128.009 8.14773 128.759 9.40057 128.759 11.4545C128.759 13.5085 128.009 14.7614 126.815 14.7614ZM144.065 9.27273H135.884V12.8182H144.065V9.27273ZM147.854 0.545454V6.03409C147.845 10.0909 150.913 12.0341 155.524 12.0341C155.737 12.0341 157.101 11.983 158.081 11.8807V18H162.683V0.545454H158.081V8.27557C157.178 8.35227 155.925 8.38636 155.524 8.38636C153.163 8.38636 152.422 7.67045 152.422 6.03409V0.545454H147.854ZM168.57 18.2727C169.823 18.2727 170.94 17.2159 170.957 15.8864C170.94 14.5909 169.823 13.5341 168.57 13.5341C167.249 13.5341 166.167 14.5909 166.184 15.8864C166.167 17.2159 167.249 18.2727 168.57 18.2727ZM176.07 18.2727C177.323 18.2727 178.44 17.2159 178.457 15.8864C178.44 14.5909 177.323 13.5341 176.07 13.5341C174.749 13.5341 173.667 14.5909 173.684 15.8864C173.667 17.2159 174.749 18.2727 176.07 18.2727ZM183.57 18.2727C184.823 18.2727 185.94 17.2159 185.957 15.8864C185.94 14.5909 184.823 13.5341 183.57 13.5341C182.249 13.5341 181.167 14.5909 181.184 15.8864C181.167 17.2159 182.249 18.2727 183.57 18.2727Z" fill="black"/>
</svg>
